<?xml version="1.0" standalone="no"?>
<!DOCTYPE svg PUBLIC "-//W3C//DTD SVG 20010904//EN"
 "http://www.w3.org/TR/2001/REC-SVG-20010904/DTD/svg10.dtd">
<svg version="1.0" xmlns="http://www.w3.org/2000/svg"
 width="1024.000000pt" height="1024.000000pt" viewBox="0 0 1024.000000 1024.000000"
 preserveAspectRatio="xMidYMid meet">

<g transform="translate(0.000000,1024.000000) scale(0.100000,-0.100000)"
fill="#000000" stroke="none">
<path d="M4825 9239 c-979 -52 -2038 -522 -2740 -1215 -401 -395 -719 -878
-922 -1399 -139 -356 -214 -662 -264 -1075 -29 -243 -32 -657 -5 -885 82 -703
312 -1348 658 -1843 228 -328 484 -612 743 -826 649 -537 1384 -857 2293 -998
l84 -13 19 -54 c70 -199 256 -300 446 -243 119 36 199 117 242 243 16 50 20
54 52 57 68 6 347 53 459 78 149 34 455 122 595 172 774 279 1424 747 1911
1377 134 173 177 236 264 384 231 394 394 829 490 1300 151 747 77 1569 -207
2311 -295 771 -832 1442 -1518 1897 -660 438 -1423 694 -2185 733 -210 11
-207 11 -415 -1z m262 -461 c23 -25 82 -140 133 -258 48 -112 45 -110 212
-126 237 -22 274 -32 293 -77 9 -22 10 -39 3 -58 -10 -28 -93 -106 -219 -207
-96 -77 -95 -74 -63 -233 14 -74 27 -166 28 -205 2 -150 -60 -151 -297 -2
-131 82 -111 83 -304 -21 -93 -50 -180 -91 -194 -91 -32 0 -65 31 -74 68 -6
31 15 183 41 293 25 107 23 112 -96 209 -170 138 -200 170 -200 213 0 72 38
85 309 112 79 8 148 18 152 22 4 4 35 70 68 145 85 194 115 238 161 238 15 0
36 -10 47 -22z m1331 -501 c6 -7 18 -38 26 -68 28 -107 49 -129 144 -149 66
-15 91 -33 76 -57 -6 -10 -24 -21 -40 -25 -16 -4 -48 -12 -72 -18 -54 -14 -78
-37 -91 -89 -6 -23 -16 -59 -21 -81 -8 -29 -16 -40 -30 -40 -23 0 -36 21 -45
75 -11 57 -39 109 -67 122 -13 6 -49 16 -80 22 -60 13 -84 31 -74 56 6 17 5
16 88 39 82 23 105 47 127 132 25 97 35 111 59 81z m-2653 -74 c22 -100 47
-126 135 -141 110 -20 117 -71 13 -92 -113 -22 -133 -42 -148 -142 -16 -104
-59 -103 -85 3 -27 106 -41 119 -150 139 -109 20 -103 56 15 90 80 23 112 49
125 104 27 111 30 116 54 116 22 0 26 -8 41 -77z m-686 -267 c20 -21 25 -44
39 -188 l17 -163 118 -60 c147 -76 187 -106 187 -145 0 -40 -30 -61 -152 -105
-170 -62 -154 -43 -163 -195 -7 -136 -25 -228 -47 -241 -34 -22 -64 -9 -124
54 -33 34 -80 86 -103 115 -63 77 -64 77 -194 48 -181 -40 -198 -41 -225 -15
-33 30 -26 54 58 210 38 72 70 137 70 145 0 8 -34 72 -75 141 -75 127 -90 174
-63 201 18 18 77 15 227 -10 l133 -23 66 75 c102 116 170 180 190 180 10 0 29
-11 41 -24z m4216 -207 l90 -88 109 19 c60 11 123 20 139 20 33 0 67 -24 67
-48 0 -8 -26 -53 -59 -101 -103 -152 -100 -131 -31 -264 33 -64 60 -122 60
-130 0 -27 -30 -47 -68 -47 -20 0 -79 11 -130 25 -51 14 -99 25 -107 25 -7 0
-57 -41 -110 -91 -79 -74 -101 -90 -123 -87 -39 4 -51 39 -60 175 l-7 118
-113 55 c-122 60 -141 77 -123 117 13 28 62 52 174 84 94 27 94 26 106 183 8
95 12 113 31 128 30 24 46 15 155 -93z m-1264 -38 c69 -70 1 -190 -94 -166
-72 19 -99 123 -44 171 41 35 99 33 138 -5z m319 -346 c16 -8 34 -24 40 -34
14 -27 12 -92 -3 -112 -35 -45 -114 -53 -152 -15 -49 49 -43 115 15 154 39 26
60 28 100 7z m-1235 -76 c57 -15 126 -62 160 -108 22 -30 37 -41 58 -41 152
-1 501 -137 707 -275 477 -320 760 -735 872 -1280 28 -136 31 -168 31 -340 0
-274 -28 -440 -117 -685 -25 -69 -42 -128 -37 -133 4 -4 48 -16 97 -26 113
-22 134 -33 134 -71 0 -25 -14 -39 -109 -109 -60 -44 -113 -86 -117 -92 -3 -6
4 -64 16 -129 20 -98 21 -121 11 -134 -33 -39 -69 -13 -209 148 l-42 49 -118
-116 c-147 -146 -197 -186 -351 -282 -201 -126 -403 -211 -611 -260 -118 -27
-110 -36 -110 125 0 119 3 147 20 183 48 104 51 122 50 339 0 293 -6 274 98
327 309 156 535 439 628 786 35 134 45 383 20 518 -79 421 -369 770 -760 917
-162 62 -238 73 -449 68 -205 -6 -288 -21 -442 -83 -173 -70 -311 -160 -437
-287 -181 -183 -304 -400 -369 -653 -21 -79 -24 -114 -24 -285 0 -255 22 -351
130 -558 154 -297 400 -486 753 -578 9 -3 12 -46 12 -176 0 -188 10 -245 54
-324 25 -44 26 -54 26 -190 l0 -144 -27 6 c-387 87 -689 258 -969 545 -267
275 -444 614 -516 986 -30 157 -32 442 -4 608 33 203 130 472 232 649 158 274
416 540 684 707 183 113 368 189 573 235 93 20 116 29 137 52 86 97 209 140
315 111z m3015 -453 c28 -113 34 -128 60 -150 17 -13 54 -28 91 -35 71 -14 89
-25 89 -52 0 -20 -9 -23 -94 -38 -99 -18 -115 -35 -141 -148 -12 -54 -21 -72
-35 -76 -21 -5 -21 -4 -50 115 -7 25 -20 55 -31 67 -18 19 -76 41 -109 41 -41
0 -90 22 -90 39 0 27 17 37 102 55 93 21 110 39 134 142 8 38 20 74 26 81 16
20 37 3 48 -41z m-6052 -113 c5 -10 15 -45 22 -78 20 -96 37 -112 145 -135 57
-13 75 -25 75 -51 0 -18 -50 -39 -92 -39 -10 0 -35 -7 -57 -16 -44 -17 -52
-32 -79 -139 -14 -58 -21 -70 -37 -70 -20 0 -23 5 -54 123 -19 69 -34 79 -167
112 -83 20 -61 65 41 86 87 18 109 39 131 124 20 79 30 100 49 100 8 0 18 -8
23 -17z m780 -203 c87 -53 54 -180 -47 -182 -100 -1 -143 125 -61 180 41 27
65 28 108 2z m4697 -103 c27 -90 47 -112 121 -127 74 -15 94 -26 94 -49 0 -27
-20 -40 -86 -53 -32 -6 -67 -18 -78 -27 -23 -20 -46 -64 -46 -88 0 -10 -5 -35
-11 -55 -8 -30 -15 -38 -33 -38 -24 0 -38 23 -51 85 -16 82 -40 104 -138 126
-100 22 -97 77 4 93 82 13 107 32 125 95 30 103 35 112 58 109 16 -2 25 -18
41 -71z m-2299 -26 c169 -49 306 -130 425 -252 135 -137 217 -287 256 -470 21
-100 23 -295 4 -384 -43 -198 -143 -378 -286 -514 -63 -60 -183 -151 -199
-151 -4 0 -6 80 -6 178 0 199 -10 257 -62 354 -38 71 -118 147 -193 183 -35
16 -93 31 -159 40 -127 18 -144 24 -196 71 -110 99 -117 253 -17 361 63 69
107 88 202 88 89 0 119 -12 186 -72 47 -43 62 -69 79 -141 22 -96 103 -145
172 -105 49 29 78 77 78 133 0 179 -193 386 -400 431 -81 17 -243 7 -310 -20
-148 -60 -268 -193 -316 -350 -19 -63 -18 -214 2 -282 37 -128 137 -247 256
-308 52 -26 90 -36 175 -47 136 -18 184 -44 225 -123 l28 -53 0 -223 0 -223
-22 -5 c-31 -7 -159 -25 -239 -32 l-66 -6 -8 193 c-7 198 -13 225 -53 261 -29
27 -92 33 -134 13 -59 -28 -68 -61 -68 -261 0 -151 -2 -175 -15 -175 -9 0 -51
14 -94 30 -356 138 -583 543 -531 950 55 437 410 826 840 921 116 26 342 21
446 -10z m3210 -439 c67 -54 56 -146 -22 -178 -65 -27 -134 24 -134 99 0 78
97 127 156 79z m-6773 -32 c45 -50 31 -118 -30 -149 -60 -31 -133 15 -133 84
0 46 13 71 48 90 37 21 81 11 115 -25z m6108 -49 c54 -54 34 -140 -38 -160
-42 -12 -95 6 -112 37 -20 38 -13 101 14 127 36 37 97 35 136 -4z m-5234 -41
c27 -77 41 -89 129 -114 65 -18 80 -25 82 -43 4 -27 -15 -38 -91 -52 -81 -15
-93 -24 -118 -90 -31 -88 -55 -90 -86 -7 -23 61 -52 83 -135 102 -38 9 -69 22
-72 30 -9 23 29 52 77 59 72 11 100 34 126 104 19 52 26 61 46 61 20 0 27 -9
42 -50z m-829 -497 c6 -10 13 -38 17 -63 17 -104 40 -132 122 -145 79 -14 103
-25 103 -50 0 -29 -19 -40 -85 -50 -58 -8 -101 -28 -114 -53 -5 -10 -15 -49
-21 -86 -18 -103 -60 -125 -80 -42 -37 148 -52 166 -157 185 -58 10 -73 17
-79 34 -9 27 14 43 85 58 109 22 105 17 152 192 11 41 41 51 57 20z m6643 -10
c5 -15 15 -49 20 -75 16 -73 46 -103 121 -118 79 -16 98 -26 98 -49 0 -28 -18
-38 -89 -51 -104 -19 -113 -29 -140 -162 -12 -57 -33 -79 -55 -58 -6 6 -20 47
-31 92 -24 96 -41 113 -132 129 -77 14 -103 30 -87 56 11 19 19 22 117 48 66
18 91 47 102 123 4 25 11 56 16 69 12 32 47 30 60 -4z m-915 -115 c51 -24 59
-105 15 -149 -39 -38 -106 -41 -139 -6 -48 51 -32 135 31 162 32 14 54 13 93
-7z m-4780 -22 c26 -26 34 -42 34 -71 0 -99 -139 -133 -185 -45 -37 72 8 149
89 150 19 0 39 -11 62 -34z m-627 -702 c17 -14 35 -42 41 -62 14 -51 13 -914
-1 -965 -18 -65 -104 -99 -157 -61 -51 35 -52 44 -52 463 l0 390 -37 -15 c-21
-9 -90 -41 -153 -71 -145 -70 -185 -76 -229 -37 -21 19 -34 42 -38 66 -11 73
6 85 327 230 200 91 187 86 232 87 25 1 46 -7 67 -25z m6517 -53 c27 -12 46
-30 57 -54 31 -65 33 -61 -146 -472 -158 -364 -206 -468 -229 -492 -26 -28
-81 -39 -114 -24 -29 13 -64 67 -64 99 0 21 50 139 254 594 36 81 66 150 66
153 0 3 -128 5 -284 5 l-284 0 -31 26 c-39 32 -49 80 -26 124 29 57 45 59 420
59 310 1 344 -1 381 -18z m-5923 -195 c45 -42 48 -105 7 -146 -62 -62 -170
-17 -170 72 0 85 102 131 163 74z m4828 -5 c23 -23 29 -38 29 -71 0 -107 -140
-139 -189 -43 -50 98 82 192 160 114z m-2281 -170 c0 -179 -1 -190 -23 -222
-63 -95 -225 -92 -282 6 -24 40 -25 50 -25 202 l0 161 31 6 c17 3 59 6 93 6
33 1 90 7 126 14 36 8 68 14 73 15 4 0 7 -84 7 -188z m2176 -272 c74 -35 76
-42 141 -573 l6 -48 116 8 c156 10 170 9 202 -22 36 -35 45 -74 24 -113 -25
-50 -54 -62 -185 -75 -66 -7 -122 -15 -125 -18 -3 -3 4 -79 15 -169 25 -206
25 -203 -8 -240 -51 -57 -147 -38 -177 34 -7 18 -21 106 -31 196 l-19 163 -50
-6 c-27 -3 -120 -13 -205 -22 -141 -15 -159 -15 -193 -1 -53 22 -79 69 -74
132 3 44 26 92 161 335 216 388 230 408 305 430 41 13 52 11 97 -11z m-4372
-28 c39 -26 66 -70 66 -109 0 -18 -11 -84 -25 -145 -44 -194 -105 -479 -105
-491 0 -7 42 -25 95 -41 126 -37 170 -73 170 -139 0 -36 -5 -51 -28 -73 -38
-38 -96 -36 -201 6 -58 24 -81 29 -87 20 -4 -7 -12 -39 -19 -73 -6 -34 -21
-96 -32 -139 -18 -67 -25 -82 -52 -98 -62 -38 -137 -10 -156 60 -9 34 -5 58
26 181 20 78 32 145 28 149 -5 4 -65 27 -134 51 -184 62 -265 103 -295 148
-29 43 -33 107 -10 152 13 24 149 150 276 255 20 17 103 87 185 156 82 69 158
131 169 137 31 18 97 14 129 -7z m2168 -415 l-3 -186 -133 0 -134 0 -4 32 c-3
18 -6 101 -7 184 l-2 151 103 -5 c57 -2 119 0 138 5 19 6 37 9 40 8 3 -2 4
-87 2 -189z m-1407 -276 c229 -22 451 -53 477 -66 44 -23 68 -62 68 -111 0
-60 -18 -83 -148 -191 -159 -133 -154 -123 -83 -156 70 -32 153 -115 183 -183
29 -66 36 -188 14 -272 -32 -123 -124 -224 -256 -277 -87 -36 -238 -45 -326
-19 -137 39 -251 128 -311 242 -42 78 -49 122 -28 166 30 63 118 84 158 39 8
-9 27 -43 43 -76 75 -154 259 -219 402 -141 74 40 106 91 110 174 3 59 0 71
-27 113 -29 46 -116 108 -152 108 -8 0 -39 7 -67 15 -39 12 -56 23 -67 45 -17
33 -20 93 -5 121 6 10 65 66 131 124 66 58 114 107 107 109 -7 3 -80 10 -163
16 -247 19 -285 26 -312 53 -15 14 -26 40 -29 63 -10 76 51 129 136 118 19 -2
85 -8 145 -14z m2709 1 c54 -36 69 -87 41 -141 -21 -40 -43 -50 -112 -50 -205
0 -356 -78 -439 -226 -34 -61 -64 -169 -63 -229 l0 -30 17 25 c44 65 109 122
176 155 233 114 498 21 609 -213 30 -63 32 -74 32 -177 0 -103 -2 -114 -32
-177 -84 -178 -288 -280 -495 -249 -303 46 -537 372 -515 715 19 291 206 522
482 596 100 27 259 27 299 1z m-1340 -157 l46 -7 0 -926 c0 -892 -1 -928 -20
-968 -50 -111 -200 -111 -250 0 -19 40 -20 77 -20 975 l0 932 99 0 c54 0 119
-3 145 -6z"/>
<path d="M4960 7073 c-22 -20 -33 -40 -37 -70 -11 -83 39 -143 117 -143 36 0
48 6 81 39 31 31 39 46 39 75 0 78 -46 126 -122 126 -38 0 -54 -6 -78 -27z"/>
<path d="M6514 5296 c-45 -20 -74 -62 -74 -108 0 -141 160 -178 221 -51 17 36
19 48 10 76 -24 72 -96 110 -157 83z"/>
<path d="M6391 4696 c-12 -13 -38 -71 -57 -130 -20 -59 -46 -119 -58 -133 -21
-25 -29 -26 -150 -32 -97 -5 -129 -10 -136 -21 -23 -36 -10 -55 78 -118 122
-88 145 -110 138 -136 -3 -11 -13 -56 -22 -99 -15 -71 -15 -80 0 -102 35 -53
82 -20 175 120 37 57 74 124 81 149 25 92 84 118 195 87 74 -21 88 -18 133 22
50 46 22 72 -103 97 -93 18 -95 22 -152 173 -18 50 -40 101 -48 113 -21 32
-50 36 -74 10z"/>
<path d="M7210 3343 c-67 -112 -132 -234 -128 -238 4 -4 218 21 223 26 5 5
-32 289 -38 296 -3 2 -29 -35 -57 -84z"/>
<path d="M2705 3334 c-182 -153 -218 -187 -204 -195 20 -10 222 -80 224 -77 3
4 27 103 55 223 11 50 23 98 26 108 9 29 -8 19 -101 -59z"/>
<path d="M6229 2376 c-95 -25 -158 -84 -180 -166 -31 -116 50 -224 186 -249
100 -19 212 33 260 120 63 116 -2 253 -139 294 -58 18 -66 18 -127 1z"/>
</g>
</svg>
